# xmcd
# 
# Track frame offsets:
#     150
#     24114
#     48926
#     67879
#     88763
#     106399
#     125345
#     145496
#     168310
#     193345
#     213540
#     233263
#     253497
#     274198
#     296580
#     317694
# 
# Disc length: 4685
# 
# Revision: 3
# Processed by: cddbd v1.5.2PL0 Copyright (c) Steve Scherf et al.
# Submitted via: fre:ac v1.0.31
# 
DISCID=ea124b10
DTITLE=Tony Joe White - Collected
DYEAR=2012
DGENRE=Blues Rock, Swamp Rock
TTITLE0=Lake Placid Blues
TTITLE1=The Guitar Don't Lie
TTITLE2=Menutha
TTITLE3=Let The Healing Begin
TTITLE4=High Horse
TTITLE5=Crack The Window Baby
TTITLE6=Cold Fingers
TTITLE7=I Want My Fleetwood Back
TTITLE8=Ol' Black Crow
TTITLE9=Ice Cream Man
TTITLE10=Can't Go Back Home
TTITLE11=Closing In On The Fire
TTITLE12=Playa Del Carmen Nights
TTITLE13=Rich Woman Blues
TTITLE14=Did Somebody Make A Fool Out Of You
TTITLE15=Louvelda
EXTD=CD 2012 - Compilation - CD 3/3\nUniversal 6 00753 37670 6 [533 767-0]
EXTT0=1995
EXTT1=1995
EXTT2=1995
EXTT3=1995
EXTT4=1995
EXTT5=1998
EXTT6=1998
EXTT7=1998
EXTT8=1998
EXTT9=2004
EXTT10=Featuring: Shelby Lynne - 2004
EXTT11=Featuring: Lucinda Williams - 2004
EXTT12=Featuring: Michelle White - 2004
EXTT13=2004
EXTT14=Featuring: Eric Clapton - 2002
EXTT15=Featuring: J.J. Cale - 2006
PLAYORDER=
